<mxfile host="app.diagrams.net" modified="2023-09-05T18:49:57.580Z" agent="Mozilla/5.0 (Windows NT 10.0; Win64; x64) AppleWebKit/537.36 (KHTML, like Gecko) Chrome/116.0.0.0 Safari/537.36" etag="lvdP0w0EGZm-V6_maiTx" version="21.7.2" type="device">
  <diagram id="42DBSTjnTLt2gEK7JXko" name="Page-1">
    <mxGraphModel dx="2688" dy="1014" grid="1" gridSize="10" guides="1" tooltips="1" connect="1" arrows="1" fold="1" page="1" pageScale="1" pageWidth="850" pageHeight="1100" math="0" shadow="0">
      <root>
        <mxCell id="0" />
        <mxCell id="1" parent="0" />
        <mxCell id="bdxNikY4OvodIH9ehBmx-17" style="edgeStyle=orthogonalEdgeStyle;rounded=0;orthogonalLoop=1;jettySize=auto;html=1;exitX=0.5;exitY=1;exitDx=0;exitDy=0;entryX=0.5;entryY=0;entryDx=0;entryDy=0;entryPerimeter=0;fontColor=#1A1A1A;strokeColor=#3399FF;" parent="1" source="bdxNikY4OvodIH9ehBmx-1" target="bdxNikY4OvodIH9ehBmx-15" edge="1">
          <mxGeometry relative="1" as="geometry" />
        </mxCell>
        <mxCell id="bdxNikY4OvodIH9ehBmx-22" style="edgeStyle=orthogonalEdgeStyle;rounded=0;orthogonalLoop=1;jettySize=auto;html=1;fontColor=#1A1A1A;strokeColor=#4D4D4D;entryX=0.5;entryY=0;entryDx=0;entryDy=0;entryPerimeter=0;" parent="1" target="bdxNikY4OvodIH9ehBmx-16" edge="1">
          <mxGeometry relative="1" as="geometry">
            <mxPoint x="715" y="250" as="sourcePoint" />
          </mxGeometry>
        </mxCell>
        <mxCell id="bdxNikY4OvodIH9ehBmx-1" value="" style="rounded=1;whiteSpace=wrap;html=1;fillColor=#D4E1F5;strokeColor=#6c8ebf;" parent="1" vertex="1">
          <mxGeometry x="-270" y="120" width="1320" height="130" as="geometry" />
        </mxCell>
        <mxCell id="bdxNikY4OvodIH9ehBmx-2" value="&lt;font color=&quot;#1a1a1a&quot;&gt;ECA - SERVICE&lt;/font&gt;" style="text;strokeColor=none;fillColor=none;html=1;fontSize=24;fontStyle=1;verticalAlign=middle;align=center;" parent="1" vertex="1">
          <mxGeometry x="310" y="130" width="100" height="40" as="geometry" />
        </mxCell>
        <mxCell id="bdxNikY4OvodIH9ehBmx-3" value="&lt;b&gt;eca-audit-log&lt;/b&gt;" style="rounded=1;whiteSpace=wrap;html=1;fillColor=#fff2cc;strokeColor=#d6b656;" parent="1" vertex="1">
          <mxGeometry x="660" y="190" width="110" height="30" as="geometry" />
        </mxCell>
        <mxCell id="bdxNikY4OvodIH9ehBmx-4" value="&lt;b&gt;eca-web-push&lt;/b&gt;" style="rounded=1;whiteSpace=wrap;html=1;fillColor=#fff2cc;strokeColor=#d6b656;" parent="1" vertex="1">
          <mxGeometry x="530" y="190" width="110" height="30" as="geometry" />
        </mxCell>
        <mxCell id="bdxNikY4OvodIH9ehBmx-5" value="&lt;b&gt;eca-web&lt;/b&gt;" style="rounded=1;whiteSpace=wrap;html=1;fillColor=#fff2cc;strokeColor=#d6b656;" parent="1" vertex="1">
          <mxGeometry x="400" y="190" width="110" height="30" as="geometry" />
        </mxCell>
        <mxCell id="bdxNikY4OvodIH9ehBmx-6" value="&lt;b&gt;eca-data-storage&lt;/b&gt;" style="rounded=1;whiteSpace=wrap;html=1;fillColor=#fff2cc;strokeColor=#d6b656;" parent="1" vertex="1">
          <mxGeometry x="270" y="190" width="110" height="30" as="geometry" />
        </mxCell>
        <mxCell id="bdxNikY4OvodIH9ehBmx-7" value="&lt;b&gt;eca-mail&lt;/b&gt;" style="rounded=1;whiteSpace=wrap;html=1;fillColor=#fff2cc;strokeColor=#d6b656;" parent="1" vertex="1">
          <mxGeometry x="140" y="190" width="110" height="30" as="geometry" />
        </mxCell>
        <mxCell id="bdxNikY4OvodIH9ehBmx-8" value="&lt;b&gt;eca-ers&lt;/b&gt;" style="rounded=1;whiteSpace=wrap;html=1;fillColor=#fff2cc;strokeColor=#d6b656;" parent="1" vertex="1">
          <mxGeometry x="10" y="190" width="110" height="30" as="geometry" />
        </mxCell>
        <mxCell id="bdxNikY4OvodIH9ehBmx-9" value="&lt;b&gt;eca-oauth&lt;/b&gt;" style="rounded=1;whiteSpace=wrap;html=1;fillColor=#fff2cc;strokeColor=#d6b656;" parent="1" vertex="1">
          <mxGeometry x="-120" y="140" width="110" height="30" as="geometry" />
        </mxCell>
        <mxCell id="bdxNikY4OvodIH9ehBmx-25" style="edgeStyle=orthogonalEdgeStyle;rounded=0;orthogonalLoop=1;jettySize=auto;html=1;exitX=0.5;exitY=1;exitDx=0;exitDy=0;entryX=0.5;entryY=0;entryDx=0;entryDy=0;entryPerimeter=0;fontColor=#FFFFFF;strokeColor=#FF9933;endArrow=none;endFill=0;strokeWidth=2;" parent="1" source="bdxNikY4OvodIH9ehBmx-10" target="bdxNikY4OvodIH9ehBmx-23" edge="1">
          <mxGeometry relative="1" as="geometry" />
        </mxCell>
        <mxCell id="bdxNikY4OvodIH9ehBmx-26" style="edgeStyle=orthogonalEdgeStyle;rounded=0;orthogonalLoop=1;jettySize=auto;html=1;exitX=0.75;exitY=1;exitDx=0;exitDy=0;fontColor=#FFFFFF;endArrow=none;endFill=0;strokeColor=#FF9933;strokeWidth=2;" parent="1" source="bdxNikY4OvodIH9ehBmx-10" target="bdxNikY4OvodIH9ehBmx-24" edge="1">
          <mxGeometry relative="1" as="geometry" />
        </mxCell>
        <mxCell id="bdxNikY4OvodIH9ehBmx-10" value="&lt;b&gt;eca-server&lt;/b&gt;" style="rounded=1;whiteSpace=wrap;html=1;fillColor=#fff2cc;strokeColor=#d6b656;" parent="1" vertex="1">
          <mxGeometry x="-250" y="190" width="110" height="30" as="geometry" />
        </mxCell>
        <mxCell id="bdxNikY4OvodIH9ehBmx-11" value="&lt;b&gt;api-gateway&lt;/b&gt;" style="rounded=1;whiteSpace=wrap;html=1;fillColor=#fff2cc;strokeColor=#d6b656;" parent="1" vertex="1">
          <mxGeometry x="790" y="190" width="110" height="30" as="geometry" />
        </mxCell>
        <mxCell id="bdxNikY4OvodIH9ehBmx-12" value="&lt;b&gt;discovery-server&lt;/b&gt;" style="rounded=1;whiteSpace=wrap;html=1;fillColor=#fff2cc;strokeColor=#d6b656;" parent="1" vertex="1">
          <mxGeometry x="920" y="190" width="110" height="30" as="geometry" />
        </mxCell>
        <mxCell id="bdxNikY4OvodIH9ehBmx-15" value="&lt;b&gt;&lt;font color=&quot;#1a1a1a&quot;&gt;Сервер PostgreSQL&lt;/font&gt;&lt;/b&gt;" style="shape=cylinder3;whiteSpace=wrap;html=1;boundedLbl=1;backgroundOutline=1;size=15;fontColor=#FFFFFF;fillColor=#99CCFF;" parent="1" vertex="1">
          <mxGeometry x="350" y="300" width="80" height="80" as="geometry" />
        </mxCell>
        <mxCell id="bdxNikY4OvodIH9ehBmx-16" value="&lt;b&gt;Логи docker контейнеров&lt;/b&gt;" style="shape=cylinder3;whiteSpace=wrap;html=1;boundedLbl=1;backgroundOutline=1;size=15;fillColor=#f5f5f5;gradientColor=#b3b3b3;strokeColor=#666666;" parent="1" vertex="1">
          <mxGeometry x="670" y="320" width="90" height="80" as="geometry" />
        </mxCell>
        <mxCell id="bdxNikY4OvodIH9ehBmx-23" value="&lt;font color=&quot;#ffffff&quot;&gt;&lt;b&gt;RABBIT MQ&lt;/b&gt;&lt;/font&gt;" style="strokeWidth=2;html=1;shape=mxgraph.flowchart.direct_data;whiteSpace=wrap;fillColor=#fa6800;strokeColor=#C73500;fontColor=#000000;" parent="1" vertex="1">
          <mxGeometry x="-380" y="310" width="130" height="60" as="geometry" />
        </mxCell>
        <mxCell id="bdxNikY4OvodIH9ehBmx-24" value="&lt;b&gt;S3 storage&lt;br&gt;(minio)&lt;/b&gt;" style="shape=cylinder3;whiteSpace=wrap;html=1;boundedLbl=1;backgroundOutline=1;size=15;fillColor=#fad7ac;strokeColor=#b46504;" parent="1" vertex="1">
          <mxGeometry x="70" y="300" width="80" height="80" as="geometry" />
        </mxCell>
        <mxCell id="bdxNikY4OvodIH9ehBmx-27" value="" style="rounded=1;whiteSpace=wrap;html=1;fontColor=#FFFFFF;fillColor=#FFFFFF;dashed=1;strokeWidth=2;" parent="1" vertex="1">
          <mxGeometry x="-340" y="460" width="560" height="410" as="geometry" />
        </mxCell>
        <mxCell id="bdxNikY4OvodIH9ehBmx-33" style="edgeStyle=orthogonalEdgeStyle;rounded=0;orthogonalLoop=1;jettySize=auto;html=1;exitX=0.75;exitY=0;exitDx=0;exitDy=0;entryX=0;entryY=0.5;entryDx=0;entryDy=0;entryPerimeter=0;fontSize=14;fontColor=#FFFFFF;endArrow=classic;endFill=1;strokeColor=#990000;strokeWidth=2;" parent="1" source="bdxNikY4OvodIH9ehBmx-28" target="bdxNikY4OvodIH9ehBmx-24" edge="1">
          <mxGeometry relative="1" as="geometry" />
        </mxCell>
        <mxCell id="bdxNikY4OvodIH9ehBmx-39" value="Сбор&lt;br style=&quot;font-size: 12px;&quot;&gt;метрик" style="edgeLabel;html=1;align=center;verticalAlign=middle;resizable=0;points=[];fontSize=12;fontColor=#1A1A1A;" parent="bdxNikY4OvodIH9ehBmx-33" vertex="1" connectable="0">
          <mxGeometry x="0.3046" y="3" relative="1" as="geometry">
            <mxPoint as="offset" />
          </mxGeometry>
        </mxCell>
        <mxCell id="bdxNikY4OvodIH9ehBmx-34" style="edgeStyle=orthogonalEdgeStyle;rounded=0;orthogonalLoop=1;jettySize=auto;html=1;exitX=0.75;exitY=0;exitDx=0;exitDy=0;entryX=1;entryY=0.5;entryDx=0;entryDy=0;entryPerimeter=0;fontSize=14;fontColor=#FFFFFF;endArrow=classic;endFill=1;strokeColor=#990000;strokeWidth=2;" parent="1" source="bdxNikY4OvodIH9ehBmx-28" target="bdxNikY4OvodIH9ehBmx-23" edge="1">
          <mxGeometry relative="1" as="geometry">
            <Array as="points">
              <mxPoint x="-220" y="490" />
              <mxPoint x="-220" y="340" />
            </Array>
          </mxGeometry>
        </mxCell>
        <mxCell id="bdxNikY4OvodIH9ehBmx-40" value="Сбор&lt;br style=&quot;font-size: 12px;&quot;&gt;метрик" style="edgeLabel;html=1;align=center;verticalAlign=middle;resizable=0;points=[];fontSize=12;fontColor=#1A1A1A;" parent="bdxNikY4OvodIH9ehBmx-34" vertex="1" connectable="0">
          <mxGeometry x="0.3471" relative="1" as="geometry">
            <mxPoint as="offset" />
          </mxGeometry>
        </mxCell>
        <mxCell id="bdxNikY4OvodIH9ehBmx-36" style="edgeStyle=orthogonalEdgeStyle;rounded=0;orthogonalLoop=1;jettySize=auto;html=1;exitX=0;exitY=0.5;exitDx=0;exitDy=0;entryX=0;entryY=0.5;entryDx=0;entryDy=0;fontSize=14;fontColor=#FFFFFF;endArrow=classic;endFill=1;strokeColor=#990000;strokeWidth=2;" parent="1" source="bdxNikY4OvodIH9ehBmx-28" target="bdxNikY4OvodIH9ehBmx-1" edge="1">
          <mxGeometry relative="1" as="geometry">
            <Array as="points">
              <mxPoint x="-440" y="520" />
              <mxPoint x="-440" y="185" />
            </Array>
          </mxGeometry>
        </mxCell>
        <mxCell id="bdxNikY4OvodIH9ehBmx-37" value="&lt;font color=&quot;#1a1a1a&quot; style=&quot;font-size: 12px;&quot;&gt;Сбор метрик&lt;br style=&quot;font-size: 12px;&quot;&gt;с микросервисов&lt;br style=&quot;font-size: 12px;&quot;&gt;&lt;/font&gt;" style="edgeLabel;html=1;align=center;verticalAlign=middle;resizable=0;points=[];fontSize=12;fontColor=#FFFFFF;" parent="bdxNikY4OvodIH9ehBmx-36" vertex="1" connectable="0">
          <mxGeometry x="0.3449" y="2" relative="1" as="geometry">
            <mxPoint as="offset" />
          </mxGeometry>
        </mxCell>
        <mxCell id="bdxNikY4OvodIH9ehBmx-55" style="edgeStyle=orthogonalEdgeStyle;rounded=0;orthogonalLoop=1;jettySize=auto;html=1;exitX=0.5;exitY=1;exitDx=0;exitDy=0;fontSize=12;fontColor=#1A1A1A;endArrow=classic;endFill=1;strokeColor=#1A1A1A;strokeWidth=2;" parent="1" source="bdxNikY4OvodIH9ehBmx-28" target="bdxNikY4OvodIH9ehBmx-44" edge="1">
          <mxGeometry relative="1" as="geometry" />
        </mxCell>
        <mxCell id="bdxNikY4OvodIH9ehBmx-78" style="edgeStyle=orthogonalEdgeStyle;rounded=0;orthogonalLoop=1;jettySize=auto;html=1;exitX=0.75;exitY=0;exitDx=0;exitDy=0;entryX=0;entryY=0.5;entryDx=0;entryDy=0;fontSize=14;fontColor=#1A1A1A;endArrow=classic;endFill=1;strokeColor=#990000;strokeWidth=2;fillColor=#a20025;" parent="1" source="bdxNikY4OvodIH9ehBmx-28" target="bdxNikY4OvodIH9ehBmx-77" edge="1">
          <mxGeometry relative="1" as="geometry" />
        </mxCell>
        <mxCell id="bdxNikY4OvodIH9ehBmx-79" value="&lt;font style=&quot;font-size: 12px;&quot;&gt;Сбор&lt;br&gt;метрик&lt;/font&gt;" style="edgeLabel;html=1;align=center;verticalAlign=middle;resizable=0;points=[];fontSize=14;fontColor=#1A1A1A;" parent="bdxNikY4OvodIH9ehBmx-78" vertex="1" connectable="0">
          <mxGeometry x="-0.0631" y="5" relative="1" as="geometry">
            <mxPoint as="offset" />
          </mxGeometry>
        </mxCell>
        <mxCell id="bdxNikY4OvodIH9ehBmx-28" value="&lt;b&gt;&lt;font style=&quot;font-size: 14px;&quot;&gt;PROMETHEUS&lt;/font&gt;&lt;/b&gt;" style="rounded=1;whiteSpace=wrap;html=1;fontColor=#ffffff;strokeWidth=2;fillColor=#a20025;strokeColor=#6F0000;" parent="1" vertex="1">
          <mxGeometry x="-255" y="490" width="120" height="60" as="geometry" />
        </mxCell>
        <mxCell id="bdxNikY4OvodIH9ehBmx-41" style="edgeStyle=orthogonalEdgeStyle;rounded=0;orthogonalLoop=1;jettySize=auto;html=1;exitX=0;exitY=0.5;exitDx=0;exitDy=0;entryX=1;entryY=0.5;entryDx=0;entryDy=0;fontSize=14;fontColor=#1A1A1A;endArrow=classic;endFill=1;strokeColor=#1A1A1A;strokeWidth=2;" parent="1" source="bdxNikY4OvodIH9ehBmx-30" target="bdxNikY4OvodIH9ehBmx-28" edge="1">
          <mxGeometry relative="1" as="geometry" />
        </mxCell>
        <mxCell id="bdxNikY4OvodIH9ehBmx-42" value="Получение метрик&lt;br style=&quot;font-size: 12px;&quot;&gt;из prometheus&lt;br style=&quot;font-size: 12px;&quot;&gt;datasource" style="edgeLabel;html=1;align=center;verticalAlign=middle;resizable=0;points=[];fontSize=12;fontColor=#1A1A1A;" parent="bdxNikY4OvodIH9ehBmx-41" vertex="1" connectable="0">
          <mxGeometry x="-0.2087" y="4" relative="1" as="geometry">
            <mxPoint as="offset" />
          </mxGeometry>
        </mxCell>
        <mxCell id="bdxNikY4OvodIH9ehBmx-30" value="&lt;b&gt;&lt;font style=&quot;font-size: 16px;&quot; color=&quot;#ffffff&quot;&gt;GRAFANA&lt;/font&gt;&lt;/b&gt;" style="rounded=1;whiteSpace=wrap;html=1;fontSize=14;fontColor=#000000;strokeWidth=2;fillColor=#e3c800;strokeColor=#B09500;" parent="1" vertex="1">
          <mxGeometry x="50" y="490" width="120" height="60" as="geometry" />
        </mxCell>
        <mxCell id="bdxNikY4OvodIH9ehBmx-43" value="&lt;font style=&quot;font-size: 12px;&quot;&gt;Визуализация метрик&lt;/font&gt;" style="text;strokeColor=none;fillColor=none;html=1;fontSize=24;fontStyle=1;verticalAlign=middle;align=center;fontColor=#1A1A1A;" parent="1" vertex="1">
          <mxGeometry x="60" y="540" width="100" height="40" as="geometry" />
        </mxCell>
        <mxCell id="bdxNikY4OvodIH9ehBmx-49" style="edgeStyle=orthogonalEdgeStyle;rounded=0;orthogonalLoop=1;jettySize=auto;html=1;exitX=1;exitY=0.5;exitDx=0;exitDy=0;entryX=0;entryY=0.5;entryDx=0;entryDy=0;fontSize=14;fontColor=#1A1A1A;endArrow=classic;endFill=1;strokeColor=#1A1A1A;strokeWidth=2;" parent="1" source="bdxNikY4OvodIH9ehBmx-44" target="bdxNikY4OvodIH9ehBmx-48" edge="1">
          <mxGeometry relative="1" as="geometry" />
        </mxCell>
        <mxCell id="bdxNikY4OvodIH9ehBmx-54" value="Отправка&lt;br&gt;уведомлений&lt;br&gt;в адаптер" style="edgeLabel;html=1;align=center;verticalAlign=middle;resizable=0;points=[];fontSize=12;fontColor=#1A1A1A;" parent="bdxNikY4OvodIH9ehBmx-49" vertex="1" connectable="0">
          <mxGeometry x="0.2891" y="-5" relative="1" as="geometry">
            <mxPoint x="-18" y="-35" as="offset" />
          </mxGeometry>
        </mxCell>
        <mxCell id="bdxNikY4OvodIH9ehBmx-52" style="edgeStyle=orthogonalEdgeStyle;rounded=0;orthogonalLoop=1;jettySize=auto;html=1;exitX=0.5;exitY=1;exitDx=0;exitDy=0;entryX=0.5;entryY=0;entryDx=0;entryDy=0;fontSize=14;fontColor=#1A1A1A;endArrow=classic;endFill=1;strokeColor=#808080;strokeWidth=2;" parent="1" source="bdxNikY4OvodIH9ehBmx-44" target="bdxNikY4OvodIH9ehBmx-50" edge="1">
          <mxGeometry relative="1" as="geometry" />
        </mxCell>
        <mxCell id="bdxNikY4OvodIH9ehBmx-53" value="&lt;font style=&quot;font-size: 12px;&quot;&gt;Отправка уведомлений&lt;br&gt;по email&lt;/font&gt;" style="edgeLabel;html=1;align=center;verticalAlign=middle;resizable=0;points=[];fontSize=14;fontColor=#1A1A1A;" parent="bdxNikY4OvodIH9ehBmx-52" vertex="1" connectable="0">
          <mxGeometry x="-0.3329" y="-2" relative="1" as="geometry">
            <mxPoint as="offset" />
          </mxGeometry>
        </mxCell>
        <mxCell id="bdxNikY4OvodIH9ehBmx-44" value="&lt;font style=&quot;font-size: 14px;&quot;&gt;&lt;b&gt;ALERTMANAGER&lt;/b&gt;&lt;/font&gt;" style="rounded=0;whiteSpace=wrap;html=1;fontSize=12;fontColor=#1A1A1A;strokeWidth=2;fillColor=#FFFFFF;" parent="1" vertex="1">
          <mxGeometry x="-262.5" y="660" width="135" height="60" as="geometry" />
        </mxCell>
        <mxCell id="bdxNikY4OvodIH9ehBmx-58" style="edgeStyle=orthogonalEdgeStyle;rounded=0;orthogonalLoop=1;jettySize=auto;html=1;exitX=0.5;exitY=1;exitDx=0;exitDy=0;entryX=0.5;entryY=0;entryDx=0;entryDy=0;fontSize=14;fontColor=#1A1A1A;endArrow=classic;endFill=1;strokeColor=#1A1A1A;strokeWidth=2;" parent="1" source="bdxNikY4OvodIH9ehBmx-48" target="bdxNikY4OvodIH9ehBmx-57" edge="1">
          <mxGeometry relative="1" as="geometry" />
        </mxCell>
        <mxCell id="bdxNikY4OvodIH9ehBmx-59" value="Отправка&lt;br&gt;уведомлений&lt;br&gt;в Tekegram" style="edgeLabel;html=1;align=center;verticalAlign=middle;resizable=0;points=[];fontSize=14;fontColor=#1A1A1A;" parent="bdxNikY4OvodIH9ehBmx-58" vertex="1" connectable="0">
          <mxGeometry x="-0.3614" relative="1" as="geometry">
            <mxPoint as="offset" />
          </mxGeometry>
        </mxCell>
        <mxCell id="bdxNikY4OvodIH9ehBmx-48" value="&lt;b&gt;ALERTMANAGER&lt;br&gt;ADAPTER&lt;/b&gt;" style="rounded=1;whiteSpace=wrap;html=1;fontSize=14;strokeWidth=2;fillColor=#fff2cc;strokeColor=#d6b656;gradientColor=#ffd966;" parent="1" vertex="1">
          <mxGeometry x="20" y="660" width="140" height="60" as="geometry" />
        </mxCell>
        <mxCell id="bdxNikY4OvodIH9ehBmx-50" value="&lt;b&gt;SMTP SERVER&lt;/b&gt;" style="rounded=0;whiteSpace=wrap;html=1;fontSize=14;strokeWidth=2;fillColor=#f5f5f5;gradientColor=#b3b3b3;strokeColor=#666666;" parent="1" vertex="1">
          <mxGeometry x="-255" y="920" width="120" height="60" as="geometry" />
        </mxCell>
        <mxCell id="bdxNikY4OvodIH9ehBmx-56" value="Отправка уведомлений&lt;br&gt;мониторинга" style="edgeLabel;html=1;align=center;verticalAlign=middle;resizable=0;points=[];fontSize=12;fontColor=#1A1A1A;" parent="1" vertex="1" connectable="0">
          <mxGeometry x="-179.99571428571423" y="600" as="geometry">
            <mxPoint x="-20" y="-2" as="offset" />
          </mxGeometry>
        </mxCell>
        <mxCell id="bdxNikY4OvodIH9ehBmx-57" value="&lt;font style=&quot;font-size: 14px;&quot;&gt;&lt;b&gt;TELEGRAM&lt;/b&gt;&lt;/font&gt;" style="rounded=1;whiteSpace=wrap;html=1;fontSize=12;fontColor=#ffffff;strokeWidth=2;fillColor=#1ba1e2;strokeColor=#006EAF;" parent="1" vertex="1">
          <mxGeometry x="30" y="920" width="120" height="60" as="geometry" />
        </mxCell>
        <mxCell id="bdxNikY4OvodIH9ehBmx-60" value="" style="rounded=1;whiteSpace=wrap;html=1;fontSize=14;fontColor=#1A1A1A;strokeWidth=2;fillColor=#FFFFFF;dashed=1;" parent="1" vertex="1">
          <mxGeometry x="450" y="470" width="580" height="430" as="geometry" />
        </mxCell>
        <mxCell id="bdxNikY4OvodIH9ehBmx-64" style="edgeStyle=orthogonalEdgeStyle;rounded=0;orthogonalLoop=1;jettySize=auto;html=1;exitX=0.5;exitY=0;exitDx=0;exitDy=0;entryX=0.5;entryY=1;entryDx=0;entryDy=0;entryPerimeter=0;fontSize=16;fontColor=#1A1A1A;endArrow=classic;endFill=1;strokeColor=#1A1A1A;strokeWidth=2;" parent="1" source="bdxNikY4OvodIH9ehBmx-62" target="bdxNikY4OvodIH9ehBmx-16" edge="1">
          <mxGeometry relative="1" as="geometry" />
        </mxCell>
        <mxCell id="bdxNikY4OvodIH9ehBmx-67" style="edgeStyle=orthogonalEdgeStyle;rounded=0;orthogonalLoop=1;jettySize=auto;html=1;exitX=0;exitY=0.5;exitDx=0;exitDy=0;fontSize=16;fontColor=#1A1A1A;endArrow=classic;endFill=1;strokeColor=#005700;strokeWidth=2;fillColor=#008a00;" parent="1" source="bdxNikY4OvodIH9ehBmx-62" target="bdxNikY4OvodIH9ehBmx-66" edge="1">
          <mxGeometry relative="1" as="geometry" />
        </mxCell>
        <mxCell id="bdxNikY4OvodIH9ehBmx-68" value="&lt;font style=&quot;font-size: 12px;&quot;&gt;Сохранение&lt;br&gt;логов&lt;/font&gt;" style="edgeLabel;html=1;align=center;verticalAlign=middle;resizable=0;points=[];fontSize=16;fontColor=#1A1A1A;" parent="bdxNikY4OvodIH9ehBmx-67" vertex="1" connectable="0">
          <mxGeometry x="-0.0239" y="-5" relative="1" as="geometry">
            <mxPoint x="5" y="35" as="offset" />
          </mxGeometry>
        </mxCell>
        <mxCell id="bdxNikY4OvodIH9ehBmx-62" value="&lt;b&gt;&lt;font style=&quot;font-size: 16px;&quot;&gt;FILEBEAT&lt;/font&gt;&lt;/b&gt;" style="rounded=0;whiteSpace=wrap;html=1;fontSize=14;fontColor=#ffffff;strokeWidth=2;fillColor=#008a00;strokeColor=#005700;" parent="1" vertex="1">
          <mxGeometry x="655" y="530" width="120" height="60" as="geometry" />
        </mxCell>
        <mxCell id="bdxNikY4OvodIH9ehBmx-65" value="Mount&lt;br&gt;/var/lib/docker/containers/..." style="edgeLabel;html=1;align=center;verticalAlign=middle;resizable=0;points=[];fontSize=12;fontColor=#1A1A1A;" parent="1" vertex="1" connectable="0">
          <mxGeometry x="729.9985714285715" y="440" as="geometry">
            <mxPoint x="-10" as="offset" />
          </mxGeometry>
        </mxCell>
        <mxCell id="bdxNikY4OvodIH9ehBmx-66" value="&lt;b&gt;ELASTICSEARCH&lt;/b&gt;" style="rounded=1;whiteSpace=wrap;html=1;fontSize=16;fontColor=#1A1A1A;strokeWidth=2;fillColor=#FFFFFF;strokeColor=#FF9933;" parent="1" vertex="1">
          <mxGeometry x="490" y="660" width="160" height="60" as="geometry" />
        </mxCell>
        <mxCell id="bdxNikY4OvodIH9ehBmx-70" style="edgeStyle=orthogonalEdgeStyle;rounded=0;orthogonalLoop=1;jettySize=auto;html=1;exitX=0;exitY=0.5;exitDx=0;exitDy=0;entryX=0.5;entryY=1;entryDx=0;entryDy=0;fontSize=16;fontColor=#1A1A1A;endArrow=classic;endFill=1;strokeColor=#1A1A1A;strokeWidth=2;" parent="1" source="bdxNikY4OvodIH9ehBmx-69" target="bdxNikY4OvodIH9ehBmx-66" edge="1">
          <mxGeometry relative="1" as="geometry" />
        </mxCell>
        <mxCell id="bdxNikY4OvodIH9ehBmx-71" value="&lt;font style=&quot;font-size: 12px;&quot;&gt;Получение&lt;br&gt;логов&lt;/font&gt;" style="edgeLabel;html=1;align=center;verticalAlign=middle;resizable=0;points=[];fontSize=16;fontColor=#1A1A1A;" parent="bdxNikY4OvodIH9ehBmx-70" vertex="1" connectable="0">
          <mxGeometry x="-0.146" y="5" relative="1" as="geometry">
            <mxPoint x="1" y="-15" as="offset" />
          </mxGeometry>
        </mxCell>
        <mxCell id="bdxNikY4OvodIH9ehBmx-69" value="&lt;b&gt;&lt;font style=&quot;font-size: 16px;&quot;&gt;KIBANA&lt;/font&gt;&lt;/b&gt;" style="rounded=1;whiteSpace=wrap;html=1;fontSize=12;strokeColor=#666666;strokeWidth=2;fillColor=#f5f5f5;gradientColor=#6E6E6E;gradientDirection=radial;" parent="1" vertex="1">
          <mxGeometry x="770" y="760" width="120" height="60" as="geometry" />
        </mxCell>
        <mxCell id="bdxNikY4OvodIH9ehBmx-72" value="&lt;font style=&quot;font-size: 12px;&quot;&gt;Визуализация логов&lt;/font&gt;" style="text;strokeColor=none;fillColor=none;html=1;fontSize=24;fontStyle=1;verticalAlign=middle;align=center;fontColor=#1A1A1A;" parent="1" vertex="1">
          <mxGeometry x="780" y="810" width="100" height="40" as="geometry" />
        </mxCell>
        <mxCell id="bdxNikY4OvodIH9ehBmx-74" value="&lt;font style=&quot;font-size: 14px;&quot;&gt;СИСТЕМА МОНИТОРИНГА&lt;/font&gt;" style="text;strokeColor=none;fillColor=none;html=1;fontSize=24;fontStyle=1;verticalAlign=middle;align=center;fontColor=#1A1A1A;" parent="1" vertex="1">
          <mxGeometry x="-115" y="830" width="100" height="40" as="geometry" />
        </mxCell>
        <mxCell id="bdxNikY4OvodIH9ehBmx-75" value="&lt;font style=&quot;font-size: 14px;&quot;&gt;СИСТЕМА ЛОГИРОВАНИЯ&lt;/font&gt;" style="text;strokeColor=none;fillColor=none;html=1;fontSize=24;fontStyle=1;verticalAlign=middle;align=center;fontColor=#1A1A1A;" parent="1" vertex="1">
          <mxGeometry x="690" y="860" width="100" height="40" as="geometry" />
        </mxCell>
        <mxCell id="bdxNikY4OvodIH9ehBmx-80" style="edgeStyle=orthogonalEdgeStyle;rounded=0;orthogonalLoop=1;jettySize=auto;html=1;exitX=1;exitY=0.5;exitDx=0;exitDy=0;entryX=0.5;entryY=1;entryDx=0;entryDy=0;entryPerimeter=0;fontSize=12;fontColor=#1A1A1A;endArrow=classic;endFill=1;strokeColor=#1A1A1A;strokeWidth=2;" parent="1" source="bdxNikY4OvodIH9ehBmx-77" target="bdxNikY4OvodIH9ehBmx-15" edge="1">
          <mxGeometry relative="1" as="geometry" />
        </mxCell>
        <mxCell id="bdxNikY4OvodIH9ehBmx-81" value="Получение данных&lt;br&gt;и преобразование&lt;br&gt;в формат prometheus" style="edgeLabel;html=1;align=center;verticalAlign=middle;resizable=0;points=[];fontSize=12;fontColor=#1A1A1A;" parent="bdxNikY4OvodIH9ehBmx-80" vertex="1" connectable="0">
          <mxGeometry x="0.0469" y="-2" relative="1" as="geometry">
            <mxPoint y="28" as="offset" />
          </mxGeometry>
        </mxCell>
        <mxCell id="bdxNikY4OvodIH9ehBmx-77" value="&lt;b&gt;POSTGRES&lt;br&gt;EXPORTER&lt;/b&gt;" style="rounded=0;whiteSpace=wrap;html=1;fontSize=14;strokeWidth=2;gradientDirection=radial;fillColor=#d5e8d4;strokeColor=#82b366;" parent="1" vertex="1">
          <mxGeometry x="170" y="390" width="120" height="60" as="geometry" />
        </mxCell>
        <mxCell id="I17gXc3xaZR4B3wOylEC-1" value="&lt;b&gt;eca-data-loader&lt;/b&gt;" style="rounded=1;whiteSpace=wrap;html=1;fillColor=#fff2cc;strokeColor=#d6b656;" vertex="1" parent="1">
          <mxGeometry x="-120" y="190" width="110" height="30" as="geometry" />
        </mxCell>
        <mxCell id="I17gXc3xaZR4B3wOylEC-2" style="edgeStyle=orthogonalEdgeStyle;rounded=0;orthogonalLoop=1;jettySize=auto;html=1;exitX=0.5;exitY=1;exitDx=0;exitDy=0;fontColor=#FFFFFF;endArrow=none;endFill=0;strokeColor=#FF9933;strokeWidth=2;" edge="1" parent="1" source="I17gXc3xaZR4B3wOylEC-1">
          <mxGeometry relative="1" as="geometry">
            <mxPoint x="-158" y="230" as="sourcePoint" />
            <mxPoint x="110" y="290" as="targetPoint" />
            <Array as="points">
              <mxPoint x="-65" y="260" />
              <mxPoint x="110" y="260" />
            </Array>
          </mxGeometry>
        </mxCell>
      </root>
    </mxGraphModel>
  </diagram>
</mxfile>
